<svg width="172" height="36" viewBox="0 0 172 36" fill="none" xmlns="http://www.w3.org/2000/svg">
<rect width="36" height="36" rx="12" fill="url(#paint0_linear_1_146)"/>
<path d="M23 21.3333L26.3333 18L23 14.6667" stroke="white" stroke-width="1.66667" stroke-linecap="round" stroke-linejoin="round"/>
<path d="M13 14.6667L9.66669 18L13 21.3333" stroke="white" stroke-width="1.66667" stroke-linecap="round" stroke-linejoin="round"/>
<path d="M20.0834 11.3333L15.9167 24.6667" stroke="white" stroke-width="1.66667" stroke-linecap="round" stroke-linejoin="round"/>
<path d="M48.0845 25L44.3388 11.9091H47.3622L49.5291 21.005H49.6378L52.0284 11.9091H54.6172L57.0014 21.0241H57.1165L59.2834 11.9091H62.3068L58.5611 25H55.8636L53.3707 16.4411H53.2685L50.782 25H48.0845ZM67.1568 25.1918C66.1468 25.1918 65.2775 24.9872 64.5488 24.5781C63.8244 24.1648 63.2662 23.581 62.8741 22.8267C62.4821 22.0682 62.286 21.1712 62.286 20.1357C62.286 19.1257 62.4821 18.2393 62.8741 17.4766C63.2662 16.7138 63.818 16.1193 64.5297 15.6932C65.2456 15.267 66.085 15.054 67.0481 15.054C67.6958 15.054 68.2988 15.1584 68.8571 15.3672C69.4196 15.5717 69.9096 15.8807 70.3272 16.294C70.7491 16.7074 71.0772 17.2273 71.3116 17.8537C71.546 18.4759 71.6632 19.2045 71.6632 20.0398V20.7876H63.3727V19.1001H69.1C69.1 18.7081 69.0147 18.3608 68.8443 18.0582C68.6738 17.7557 68.4373 17.5192 68.1348 17.3487C67.8365 17.174 67.4892 17.0866 67.0929 17.0866C66.6795 17.0866 66.313 17.1825 65.9934 17.3743C65.6781 17.5618 65.4309 17.8153 65.252 18.1349C65.073 18.4503 64.9814 18.8018 64.9771 19.1896V20.794C64.9771 21.2798 65.0666 21.6996 65.2456 22.0533C65.4288 22.407 65.6866 22.6797 66.019 22.8714C66.3514 23.0632 66.7456 23.1591 67.2015 23.1591C67.5041 23.1591 67.7811 23.1165 68.0325 23.0312C68.2839 22.946 68.4991 22.8182 68.6781 22.6477C68.8571 22.4773 68.9934 22.2685 69.0872 22.0213L71.6056 22.1875C71.4778 22.7926 71.2157 23.321 70.8194 23.7727C70.4274 24.2202 69.9203 24.5696 69.2981 24.821C68.6802 25.0682 67.9664 25.1918 67.1568 25.1918ZM73.4913 25V11.9091H76.2143V16.831H76.2974C76.4167 16.5668 76.5893 16.2983 76.8152 16.0256C77.0453 15.7486 77.3436 15.5185 77.7101 15.3352C78.0808 15.1477 78.541 15.054 79.0907 15.054C79.8066 15.054 80.4672 15.2415 81.0723 15.6165C81.6774 15.9872 82.161 16.5476 82.5233 17.2976C82.8855 18.0433 83.0666 18.9787 83.0666 20.1037C83.0666 21.1989 82.8897 22.1236 82.536 22.8778C82.1866 23.6278 81.7093 24.1967 81.1042 24.5845C80.5034 24.968 79.8301 25.1598 79.0843 25.1598C78.5559 25.1598 78.1064 25.0724 77.7356 24.8977C77.3691 24.723 77.0687 24.5036 76.8343 24.2393C76.6 23.9709 76.421 23.7003 76.2974 23.4276H76.176V25H73.4913ZM76.1568 20.0909C76.1568 20.6747 76.2377 21.1839 76.3997 21.6186C76.5616 22.0533 76.796 22.392 77.1028 22.6349C77.4096 22.8736 77.7825 22.9929 78.2214 22.9929C78.6646 22.9929 79.0396 22.8714 79.3464 22.6286C79.6532 22.3814 79.8855 22.0405 80.0431 21.6058C80.2051 21.1669 80.286 20.6619 80.286 20.0909C80.286 19.5241 80.2072 19.0256 80.0495 18.5952C79.8919 18.1648 79.6596 17.8281 79.3528 17.5852C79.046 17.3423 78.6689 17.2209 78.2214 17.2209C77.7782 17.2209 77.4032 17.3381 77.0964 17.5724C76.7939 17.8068 76.5616 18.1392 76.3997 18.5696C76.2377 19 76.1568 19.5071 76.1568 20.0909Z" fill="#030711"/>
<path d="M84.9347 25V11.9091H93.7557V14.1911H87.7024V17.3104H93.3018V19.5923H87.7024V22.718H93.7812V25H84.9347ZM99.5229 25.1598C98.7772 25.1598 98.1017 24.968 97.4966 24.5845C96.8958 24.1967 96.4185 23.6278 96.0648 22.8778C95.7154 22.1236 95.5407 21.1989 95.5407 20.1037C95.5407 18.9787 95.7218 18.0433 96.084 17.2976C96.4462 16.5476 96.9277 15.9872 97.5286 15.6165C98.1337 15.2415 98.7963 15.054 99.5165 15.054C100.066 15.054 100.524 15.1477 100.891 15.3352C101.262 15.5185 101.56 15.7486 101.786 16.0256C102.016 16.2983 102.191 16.5668 102.31 16.831H102.393V11.9091H105.11V25H102.425V23.4276H102.31C102.182 23.7003 102.001 23.9709 101.767 24.2393C101.536 24.5036 101.236 24.723 100.865 24.8977C100.499 25.0724 100.051 25.1598 99.5229 25.1598ZM100.386 22.9929C100.825 22.9929 101.195 22.8736 101.498 22.6349C101.805 22.392 102.039 22.0533 102.201 21.6186C102.367 21.1839 102.45 20.6747 102.45 20.0909C102.45 19.5071 102.369 19 102.208 18.5696C102.046 18.1392 101.811 17.8068 101.504 17.5724C101.198 17.3381 100.825 17.2209 100.386 17.2209C99.9384 17.2209 99.5613 17.3423 99.2544 17.5852C98.9476 17.8281 98.7154 18.1648 98.5577 18.5952C98.4 19.0256 98.3212 19.5241 98.3212 20.0909C98.3212 20.6619 98.4 21.1669 98.5577 21.6058C98.7196 22.0405 98.9519 22.3814 99.2544 22.6286C99.5613 22.8714 99.9384 22.9929 100.386 22.9929ZM113.645 20.8196V15.1818H116.368V25H113.753V23.2166H113.651C113.429 23.7919 113.061 24.2543 112.545 24.6037C112.034 24.9531 111.409 25.1278 110.672 25.1278C110.016 25.1278 109.439 24.9787 108.94 24.6804C108.441 24.3821 108.051 23.9581 107.77 23.4084C107.493 22.8587 107.353 22.2003 107.348 21.4332V15.1818H110.071V20.9474C110.076 21.527 110.231 21.9851 110.538 22.3217C110.845 22.6584 111.256 22.8267 111.772 22.8267C112.1 22.8267 112.407 22.7521 112.692 22.603C112.978 22.4496 113.208 22.2237 113.382 21.9254C113.561 21.6271 113.649 21.2585 113.645 20.8196ZM122.982 25.1918C121.976 25.1918 121.111 24.9787 120.387 24.5526C119.666 24.1222 119.112 23.5256 118.725 22.7628C118.341 22 118.149 21.1222 118.149 20.1293C118.149 19.1236 118.343 18.2415 118.731 17.483C119.123 16.7202 119.679 16.1257 120.399 15.6996C121.119 15.2692 121.976 15.054 122.969 15.054C123.825 15.054 124.575 15.2095 125.219 15.5206C125.862 15.8317 126.372 16.2685 126.747 16.831C127.122 17.3935 127.328 18.054 127.367 18.8125H124.797C124.725 18.3224 124.533 17.9283 124.222 17.63C123.915 17.3274 123.512 17.1761 123.014 17.1761C122.592 17.1761 122.223 17.2912 121.908 17.5213C121.597 17.7472 121.354 18.0774 121.179 18.5121C121.004 18.9467 120.917 19.473 120.917 20.0909C120.917 20.7173 121.002 21.25 121.173 21.6889C121.347 22.1278 121.593 22.4624 121.908 22.6925C122.223 22.9226 122.592 23.0376 123.014 23.0376C123.325 23.0376 123.604 22.9737 123.851 22.8459C124.102 22.718 124.309 22.5327 124.471 22.2898C124.637 22.0426 124.746 21.7464 124.797 21.4013H127.367C127.324 22.1513 127.119 22.8118 126.753 23.3828C126.391 23.9496 125.89 24.3928 125.251 24.7124C124.612 25.032 123.855 25.1918 122.982 25.1918ZM131.91 25.1854C131.283 25.1854 130.725 25.0767 130.235 24.8594C129.745 24.6378 129.357 24.3118 129.072 23.8814C128.79 23.4467 128.65 22.9055 128.65 22.2578C128.65 21.7124 128.75 21.2543 128.95 20.8835C129.151 20.5128 129.423 20.2145 129.768 19.9886C130.114 19.7628 130.506 19.5923 130.945 19.4773C131.388 19.3622 131.852 19.2812 132.338 19.2344C132.909 19.1747 133.369 19.1193 133.719 19.0682C134.068 19.0128 134.322 18.9318 134.479 18.8253C134.637 18.7187 134.716 18.5611 134.716 18.3523V18.3139C134.716 17.9091 134.588 17.5959 134.332 17.3743C134.081 17.1527 133.723 17.0419 133.259 17.0419C132.768 17.0419 132.379 17.1506 132.089 17.3679C131.799 17.581 131.607 17.8494 131.513 18.1733L128.995 17.9688C129.123 17.3722 129.374 16.8565 129.749 16.4219C130.124 15.983 130.608 15.6463 131.2 15.4119C131.797 15.1733 132.487 15.054 133.271 15.054C133.817 15.054 134.339 15.1179 134.837 15.2457C135.34 15.3736 135.786 15.5717 136.173 15.8402C136.565 16.1087 136.874 16.4538 137.1 16.8757C137.326 17.2933 137.439 17.794 137.439 18.3778V25H134.857V23.6385H134.78C134.622 23.9453 134.411 24.2159 134.147 24.4503C133.883 24.6804 133.565 24.8615 133.195 24.9936C132.824 25.1214 132.396 25.1854 131.91 25.1854ZM132.69 23.3061C133.09 23.3061 133.444 23.2273 133.751 23.0696C134.058 22.9077 134.298 22.6903 134.473 22.4176C134.648 22.1449 134.735 21.8359 134.735 21.4908V20.4489C134.65 20.5043 134.533 20.5554 134.384 20.6023C134.239 20.6449 134.075 20.6854 133.891 20.7237C133.708 20.7578 133.525 20.7898 133.342 20.8196C133.158 20.8452 132.992 20.8686 132.843 20.8899C132.523 20.9368 132.244 21.0114 132.006 21.1136C131.767 21.2159 131.582 21.3544 131.45 21.5291C131.317 21.6996 131.251 21.9126 131.251 22.1683C131.251 22.5391 131.386 22.8224 131.654 23.0185C131.927 23.2102 132.272 23.3061 132.69 23.3061ZM144.774 15.1818V17.2273H138.861V15.1818H144.774ZM140.203 12.8295H142.926V21.983C142.926 22.2344 142.965 22.4304 143.042 22.571C143.118 22.7074 143.225 22.8033 143.361 22.8587C143.502 22.9141 143.664 22.9418 143.847 22.9418C143.975 22.9418 144.103 22.9311 144.23 22.9098C144.358 22.8842 144.456 22.8651 144.525 22.8523L144.953 24.8786C144.816 24.9212 144.625 24.9702 144.377 25.0256C144.13 25.0852 143.83 25.1214 143.476 25.1342C142.82 25.1598 142.245 25.0724 141.75 24.8722C141.26 24.6719 140.879 24.3608 140.606 23.9389C140.333 23.517 140.199 22.9844 140.203 22.3409V12.8295ZM146.548 25V15.1818H149.271V25H146.548ZM147.915 13.9162C147.511 13.9162 147.163 13.782 146.874 13.5135C146.588 13.2408 146.445 12.9148 146.445 12.5355C146.445 12.1605 146.588 11.8388 146.874 11.5703C147.163 11.2976 147.511 11.1612 147.915 11.1612C148.32 11.1612 148.665 11.2976 148.951 11.5703C149.241 11.8388 149.386 12.1605 149.386 12.5355C149.386 12.9148 149.241 13.2408 148.951 13.5135C148.665 13.782 148.32 13.9162 147.915 13.9162ZM155.888 25.1918C154.895 25.1918 154.036 24.9808 153.312 24.5589C152.592 24.1328 152.036 23.5405 151.644 22.782C151.252 22.0192 151.056 21.1349 151.056 20.1293C151.056 19.1151 151.252 18.2287 151.644 17.4702C152.036 16.7074 152.592 16.1151 153.312 15.6932C154.036 15.267 154.895 15.054 155.888 15.054C156.881 15.054 157.737 15.267 158.458 15.6932C159.182 16.1151 159.74 16.7074 160.132 17.4702C160.524 18.2287 160.72 19.1151 160.72 20.1293C160.72 21.1349 160.524 22.0192 160.132 22.782C159.74 23.5405 159.182 24.1328 158.458 24.5589C157.737 24.9808 156.881 25.1918 155.888 25.1918ZM155.901 23.0824C156.352 23.0824 156.73 22.9545 157.032 22.6989C157.335 22.4389 157.563 22.0852 157.716 21.6378C157.874 21.1903 157.953 20.6811 157.953 20.1101C157.953 19.5391 157.874 19.0298 157.716 18.5824C157.563 18.1349 157.335 17.7812 157.032 17.5213C156.73 17.2614 156.352 17.1314 155.901 17.1314C155.445 17.1314 155.061 17.2614 154.75 17.5213C154.443 17.7812 154.211 18.1349 154.053 18.5824C153.9 19.0298 153.823 19.5391 153.823 20.1101C153.823 20.6811 153.9 21.1903 154.053 21.6378C154.211 22.0852 154.443 22.4389 154.75 22.6989C155.061 22.9545 155.445 23.0824 155.901 23.0824ZM165.214 19.3239V25H162.491V15.1818H165.086V16.9141H165.201C165.419 16.343 165.783 15.8913 166.294 15.5589C166.806 15.2223 167.426 15.054 168.154 15.054C168.836 15.054 169.431 15.2031 169.938 15.5014C170.445 15.7997 170.839 16.2259 171.12 16.7798C171.401 17.3295 171.542 17.9858 171.542 18.7486V25H168.819V19.2344C168.823 18.6335 168.67 18.1648 168.359 17.8281C168.048 17.4872 167.619 17.3168 167.074 17.3168C166.708 17.3168 166.384 17.3956 166.102 17.5533C165.825 17.7109 165.608 17.9411 165.45 18.2436C165.297 18.5419 165.218 18.902 165.214 19.3239Z" fill="#6467F2"/>
<defs>
<linearGradient id="paint0_linear_1_146" x1="0" y1="0" x2="36" y2="36" gradientUnits="userSpaceOnUse">
<stop stop-color="#6467F2"/>
<stop offset="1" stop-color="#B447EB"/>
</linearGradient>
</defs>
</svg>
