<svg width="40" height="40" viewBox="0 0 40 40" fill="none" xmlns="http://www.w3.org/2000/svg">
<rect x="0.5" y="0.5" width="39" height="39" rx="11.5" fill="white"/>
<rect x="0.5" y="0.5" width="39" height="39" rx="11.5" stroke="#E5E7EB"/>
<path d="M23.3333 16.6667C24.6594 16.6667 25.9312 17.1935 26.8688 18.1312C27.8065 19.0689 28.3333 20.3407 28.3333 21.6667V27.5001H25V21.6667C25 21.2247 24.8244 20.8008 24.5118 20.4882C24.1993 20.1757 23.7753 20.0001 23.3333 20.0001C22.8913 20.0001 22.4674 20.1757 22.1548 20.4882C21.8422 20.8008 21.6666 21.2247 21.6666 21.6667V27.5001H18.3333V21.6667C18.3333 20.3407 18.8601 19.0689 19.7978 18.1312C20.7355 17.1935 22.0072 16.6667 23.3333 16.6667Z" stroke="#6B7280" stroke-width="1.66667" stroke-linecap="round" stroke-linejoin="round"/>
<path d="M15 17.5H11.6667V27.5H15V17.5Z" stroke="#6B7280" stroke-width="1.66667" stroke-linecap="round" stroke-linejoin="round"/>
<path d="M13.3334 15.0001C14.2538 15.0001 15 14.2539 15 13.3334C15 12.4129 14.2538 11.6667 13.3334 11.6667C12.4129 11.6667 11.6667 12.4129 11.6667 13.3334C11.6667 14.2539 12.4129 15.0001 13.3334 15.0001Z" stroke="#6B7280" stroke-width="1.66667" stroke-linecap="round" stroke-linejoin="round"/>
</svg>
